<?xml version="1.0" encoding="utf-8"?>
<!-- Generator: Adobe Illustrator 22.0.0, SVG Export Plug-In . SVG Version: 6.00 Build 0)  -->
<svg version="1.1"
	 id="svg9" xmlns:cc="http://creativecommons.org/ns#" xmlns:dc="http://purl.org/dc/elements/1.1/" xmlns:rdf="http://www.w3.org/1999/02/22-rdf-syntax-ns#" xmlns:svg="http://www.w3.org/2000/svg"
	 xmlns="http://www.w3.org/2000/svg" xmlns:xlink="http://www.w3.org/1999/xlink" x="0px" y="0px" viewBox="0 0 10017.8 1486.5"
	 style="enable-background:new 0 0 10017.8 1486.5;" xml:space="preserve">
<style type="text/css">
	.st0{fill:#FFFFFF;}
</style>
<g id="Layer1000">
	<path id="path2" class="st0" d="M12.5,263.1c256.2-136.6,497.1-107,725.3,60.6c189.1,122.9,401.7,140.3,637.8,52.4l1.4,0.2V64.3
		H12.5V263.1z M12.5,990.4c256.2-136.6,497.1-106.9,725.3,60.7c189.1,122.8,401.7,140.3,637.8,52.4l1.4,0.1V919.8l-8.4-0.7
		c-236.2,87.8-448.8,70.2-638-52.8c-226-156.4-464.4-186.2-718.1-62.9V990.4z M1376.9,1280.9l-1.3-0.1
		c-236.2,87.8-448.8,70.2-638-52.8c-227.8-157.8-468.4-186.6-724.4-59.9l-0.7-0.1v260.7h1364.4V1280.9z M12.5,625.1
		c253.6-132.3,492.2-101.7,718.2,64.4c189.1,122.8,401.7,140.3,637.8,52.4l8.4,0.7V553.5l-1.3-0.1c-236.2,87.8-448.8,70.2-638-52.8
		C509.8,342.7,269.2,313.9,13.2,440.7l-0.7,0L12.5,625.1z M8165.3,60.8h20.7h426.4l-616.9,623.1l652.1,740.8H8627h-445.1L7654,775.8
		v648.9h-20.7H7271V60.8h20.7H7654v557L8165.3,60.8z M6717.3,60.8h20.7h362.3v1363.9h-20.7h-362.3V564.4l-592.1,860.3h-20.7h-362.3
		V60.8h20.7h362.3v851.1L6717.3,60.8z M5656.4,943.1c-2.8,29.4-9,62.8-18.6,100.2c-9.7,37.4-24.1,75.7-43.5,114.9
		c-40,77.2-108.4,148-205,212.3c-96.6,64.3-240.1,96.5-430.6,96.5l-20.7,1.9c-18-1.2-35.5-2.1-52.8-2.8c-17.2-0.6-34.9-1.6-52.8-2.8
		c-161.4-13.5-309.5-68.3-444.1-164.5c-134.6-96.2-201.8-273-201.8-530.3c0-218.1,59.7-396.7,179.1-535.8
		C4485,93.5,4671.7,24,4925.6,24h20.7c190.4,0,334.3,30.6,431.6,91.9c97.3,61.2,165.3,129.3,203.9,204
		c20.7,36.7,35.2,72.9,43.5,108.4c8.3,35.5,13.1,67.4,14.5,95.6h-20.7h-356.1c-1.4-12.3-4.8-27.9-10.3-46.9
		c-5.5-19-13.8-38.3-24.9-57.9c-19.3-31.8-50.3-61.2-93.1-88.2c-42.8-27-103.5-41.1-182.2-42.3c-121.5,2.4-210.8,46.3-268.1,131.4
		c-57.3,85.2-85.9,197-85.9,335.5c0,16,1.7,44.4,5.2,85.5c3.5,41.1,14.1,85.5,32.1,133.3c22.1,55.1,58.3,106.3,108.7,153.5
		c50.4,47.2,123.9,72,220.5,74.4c81.4-2.4,143.5-19.6,186.3-51.5c42.8-31.9,73.8-66.8,93.1-104.8c9.7-18.4,16.9-36.4,21.7-54.2
		c4.8-17.8,8-34,9.3-48.7h20.7H5656.4z M4078,603v250h-751.5v307h873.6v264.7h-20.7H2943.5V325.5h-417v1099.2h-20.7h-362.3V325.5
		h-463.7V60.8h20.7h2479v264.7h-852.9V603H4078z M9225.8,1182c104.9-2.4,183.2-27.9,235-76.3c51.7-48.4,88-102,108.7-160.8
		c15.2-45.3,24.2-88.5,26.9-129.6c2.8-41.1,4.1-70.8,4.1-89.2c0-137.3-23.1-237.4-69.4-300.5c-46.2-63.1-96.9-105.7-152.1-127.8
		c-27.6-11-54.9-18.4-81.8-22c-26.9-3.7-50.7-5.5-71.5-5.5c-20.7,0-44.5,1.8-71.4,5.5c-26.9,3.7-54.8,11.6-83.8,23.9
		c-55.2,22-105.6,64.6-151.1,127.7c-45.6,63.1-68.3,162.7-68.3,298.7c0,24.5,1.4,52.1,4.1,82.7c2.8,30.6,8.7,60.1,17,91.9
		c16.6,68.6,51.1,131.7,103.5,189.3C9028.2,1147.7,9111.3,1179.6,9225.8,1182L9225.8,1182z M9215.9,1444.9
		c-281.6-1.2-481.3-75.4-599.3-222.4c-118-147.1-177-313.1-177-498.1c0-186.3,58.6-351.1,176.6-498.2
		c118-147.1,317.8-220.6,599.3-220.6h20.7c282.9,0,483.1,73.5,600.4,220.6c117.3,147.1,176,313.7,176,500
		c0,186.3-58.6,352.6-176,499.1c-117.3,146.4-317.4,219.7-600.4,219.7H9215.9z M5389.3,1370.5c-96.6,64.3-239.7,98.3-430.1,98.3
		h-21.2"/>
</g>
</svg>
